<?xml version="1.0" encoding="UTF-8" standalone="no"?>
<svg
   xmlns:dc="http://purl.org/dc/elements/1.1/"
   xmlns:cc="http://creativecommons.org/ns#"
   xmlns:rdf="http://www.w3.org/1999/02/22-rdf-syntax-ns#"
   xmlns:svg="http://www.w3.org/2000/svg"
   xmlns="http://www.w3.org/2000/svg"
   id="svg7"
   height="28.93mm"
   width="35.509998mm"
   version="1.0">
  <metadata
     id="metadata11">
    <rdf:RDF>
      <cc:Work
         rdf:about="">
        <dc:format>image/svg+xml</dc:format>
        <dc:type
           rdf:resource="http://purl.org/dc/dcmitype/StillImage" />
      </cc:Work>
    </rdf:RDF>
  </metadata>
  <defs
     id="defs3">
    <pattern
       y="0"
       x="0"
       height="6"
       width="6"
       patternUnits="userSpaceOnUse"
       id="EMFhbasepattern" />
  </defs>
  <path
     id="path5"
     d="  M 104.21509,91.440985   L 99.269631,91.440985   C 97.547729,86.615656 92.982688,83.131809 87.536673,83.131809   C 82.110681,83.131809 77.525618,86.615656 75.803716,91.440985   L 57.603616,91.440985   C 55.881714,86.615656 51.316673,83.131809 45.870659,83.131809   C 40.604843,83.131809 36.099868,86.415435 34.277856,91.020521   C 30.81403,90.079482 29.212261,87.656806 29.212261,85.214109   C 29.212261,82.110681 31.775092,78.987232 37.54146,78.987232   L 100.03047,78.987232   C 101.95259,78.987232 103.61443,77.685794 104.07494,75.823738   L 106.97814,64.291002   C 106.05713,64.37109 105.13611,64.431156 104.21509,64.431156   C 102.25293,64.431156 100.35083,64.230935 98.468747,63.930603   L 96.786889,70.678055   L 87.536673,70.678055   L 87.536673,62.368879   L 92.362002,62.368879   C 87.336452,60.586911 82.831477,57.743771 79.147409,54.059702   L 58.384478,54.059702   L 58.384478,45.750526   L 72.980598,45.750526   C 71.57905,43.147651 70.5379,40.364578 69.817104,37.441349   L 58.384478,37.441349   L 58.384478,29.132173   L 68.795977,29.132173   C 68.795977,26.269011 69.176397,23.485937 69.817104,20.822996   L 25.047662,20.822996   C 25.02764,20.822996 25.007618,20.822996 24.987596,20.822996   L 20.682842,7.1078497   C 20.142245,5.3859481 18.540476,4.2046435 16.718463,4.2046435   L 4.2046435,4.2046435   C 1.9021006,4.2046435 0.040044224,6.0666999 0.040044224,8.3492207   C 0.040044224,10.651764 1.9021006,12.51382 4.2046435,12.51382   L 13.65508,12.51382   L 32.115468,71.438895   C 24.74733,73.421085 20.883063,79.307585 20.883063,85.214109   C 20.883063,91.621184 25.388038,98.068304 34.057612,99.44983   C 35.679404,104.43534 40.324533,108.05934 45.870659,108.05934   C 51.316673,108.05934 55.881714,104.59551 57.603616,99.750162   L 75.803716,99.750162   C 77.525618,104.59551 82.110681,108.05934 87.536673,108.05934   C 92.982688,108.05934 97.547729,104.59551 99.269631,99.750162   L 104.21509,99.750162   C 106.49761,99.750162 108.37969,97.888105 108.37969,95.605585   C 108.37969,93.303042 106.49761,91.440985 104.21509,91.440985   z  M 50.035258,70.678055   L 40.604843,70.678055   L 38.001969,62.368879   L 50.035258,62.368879   L 50.035258,70.678055   z  M 50.035258,54.059702   L 35.399094,54.059702   L 32.796219,45.750526   L 50.035258,45.750526   L 50.035258,54.059702   z  M 58.384478,62.368879   L 79.207475,62.368879   L 79.207475,70.678055   L 58.384478,70.678055   L 58.384478,62.368879   z  M 30.193345,37.441349   L 27.59047,29.132173   L 50.035258,29.132173   L 50.035258,37.441349   L 30.193345,37.441349   z  M 45.870659,100.17063   C 43.347872,100.17063 41.285595,98.128371 41.285595,95.605585   C 41.285595,93.082799 43.347872,91.040543 45.870659,91.040543   C 48.393445,91.040543 50.455722,93.082799 50.455722,95.605585   C 50.455722,98.128371 48.393445,100.17063 45.870659,100.17063   z  M 87.536673,100.17063   C 85.013887,100.17063 82.95161,98.128371 82.95161,95.605585   C 82.95161,93.082799 85.013887,91.040543 87.536673,91.040543   C 90.05946,91.040543 92.121737,93.082799 92.121737,95.605585   C 92.121737,98.128371 90.05946,100.17063 87.536673,100.17063   z  M 133.36729,29.132173   C 133.36729,45.189907 120.31287,58.204279 104.21509,58.204279   C 88.097293,58.204279 75.042876,45.189907 75.042876,29.132173   C 75.042876,13.074439 88.097293,0.040044224 104.21509,0.040044224   C 120.31287,0.040044224 133.36729,13.074439 133.36729,29.132173   z  M 120.87349,27.049873   C 120.87349,25.908613 119.93245,24.967574 118.79119,24.967574   L 108.37969,24.967574   L 108.37969,14.576098   C 108.37969,13.434837 107.43865,12.51382 106.29739,12.51382   L 102.13279,12.51382   C 100.97151,12.51382 100.03047,13.434837 100.03047,14.576098   L 100.03047,24.967574   L 89.618973,24.967574   C 88.477713,24.967574 87.536673,25.908613 87.536673,27.049873   L 87.536673,31.19445   C 87.536673,32.355733 88.477713,33.27675 89.618973,33.27675   L 100.03047,33.27675   L 100.03047,43.668226   C 100.03047,44.809487 100.97151,45.750526 102.13279,45.750526   L 106.29739,45.750526   C 107.43865,45.750526 108.37969,44.809487 108.37969,43.668226   L 108.37969,33.27675   L 118.79119,33.27675   C 119.93245,33.27675 120.87349,32.355733 120.87349,31.19445   L 120.87349,27.049873   z "
     style="fill:#00b050;fill-rule:evenodd;fill-opacity:1;stroke:none;" />
</svg>
