<?xml version="1.0" encoding="UTF-8" standalone="no"?>
<svg
   xmlns:dc="http://purl.org/dc/elements/1.1/"
   xmlns:cc="http://creativecommons.org/ns#"
   xmlns:rdf="http://www.w3.org/1999/02/22-rdf-syntax-ns#"
   xmlns:svg="http://www.w3.org/2000/svg"
   xmlns="http://www.w3.org/2000/svg"
   id="svg97"
   height="117.28mm"
   width="151.39999mm"
   version="1.0">
  <metadata
     id="metadata101">
    <rdf:RDF>
      <cc:Work
         rdf:about="">
        <dc:format>image/svg+xml</dc:format>
        <dc:type
           rdf:resource="http://purl.org/dc/dcmitype/StillImage" />
      </cc:Work>
    </rdf:RDF>
  </metadata>
  <defs
     id="defs3">
    <pattern
       y="0"
       x="0"
       height="6"
       width="6"
       patternUnits="userSpaceOnUse"
       id="EMFhbasepattern" />
  </defs>
  <path
     id="path5"
     d="  M 468.59751,276.18501   C 468.59751,280.71001 466.79552,284.79452 463.4318,287.99806   C 455.1026,295.88677 438.56434,297.16819 429.99488,297.28832   C 429.99488,303.13478 429.99488,313.3861 429.99488,313.3861   C 429.99488,316.14915 427.7524,318.35158 424.98935,318.35158   C 424.98935,318.35158 416.13958,318.35158 410.69356,318.35158   C 410.69356,323.55733 410.69356,331.36595 410.69356,331.36595   C 410.69356,334.129 408.45108,336.33144 405.68803,336.33144   L 166.18353,336.33144   C 163.42048,336.33144 161.21805,334.129 161.21805,331.36595   C 161.21805,331.36595 161.21805,323.55733 161.21805,318.35158   C 155.73199,318.35158 146.88221,318.35158 146.88221,318.35158   C 144.11916,318.35158 141.91673,316.14915 141.91673,313.3861   C 141.91673,313.3861 141.91673,303.13478 141.91673,297.28832   C 133.30722,297.16819 116.76896,295.88677 108.4798,287.99806   C 105.07604,284.79452 103.3141,280.71001 103.3141,276.18501   L 103.3141,166.66406   C 103.3141,162.13906 105.07604,158.05455 108.4798,154.85101   C 116.76896,146.9623 133.30722,145.68089 141.91673,145.56075   C 141.91673,139.7143 141.91673,129.46298 141.91673,129.46298   C 141.91673,126.69992 144.11916,124.49749 146.88221,124.49749   C 146.88221,124.49749 155.73199,124.49749 161.21805,124.49749   C 161.21805,119.29174 161.21805,111.48312 161.21805,111.48312   C 161.21805,108.72007 163.42048,106.47759 166.18353,106.47759   L 405.68803,106.47759   C 408.45108,106.47759 410.69356,108.72007 410.69356,111.48312   C 410.69356,111.48312 410.69356,119.29174 410.69356,124.49749   C 416.13958,124.49749 424.98935,124.49749 424.98935,124.49749   C 427.7524,124.49749 429.99488,126.69992 429.99488,129.46298   C 429.99488,129.46298 429.99488,139.7143 429.99488,145.56075   C 438.56434,145.68089 455.1026,146.9623 463.4318,154.85101   C 466.79552,158.05455 468.59751,162.13906 468.59751,166.66406   z  M 466.83556,151.24703   C 459.06698,143.83885 446.01257,141.39615 434.96036,140.75545   C 434.96036,136.03023 434.96036,129.46298 434.96036,129.46298   C 434.96036,123.97692 430.47541,119.53201 424.98935,119.53201   C 424.98935,119.53201 419.90373,119.53201 415.65904,119.53201   C 415.65904,115.72781 415.65904,111.48312 415.65904,111.48312   C 415.65904,105.99706 411.17409,101.51211 405.68803,101.51211   L 166.18353,101.51211   C 160.69747,101.51211 156.25256,105.99706 156.25256,111.48312   C 156.25256,111.48312 156.25256,115.72781 156.25256,119.53201   C 152.00787,119.53201 146.88221,119.53201 146.88221,119.53201   C 141.39615,119.53201 136.95125,123.97692 136.95125,129.46298   C 136.95125,129.46298 136.95125,136.03023 136.95125,140.75545   C 125.859,141.39615 112.80458,143.83885 105.036,151.24703   C 100.63113,155.41163 98.30857,160.73751 98.30857,166.66406   L 98.30857,276.18501   C 98.30857,282.07151 100.63113,287.3974 105.036,291.60204   C 112.80458,298.97018 125.859,301.45292 136.95125,302.09363   C 136.95125,306.81884 136.95125,313.3861 136.95125,313.3861   C 136.95125,318.87216 141.39615,323.31706 146.88221,323.31706   C 146.88221,323.31706 152.00787,323.31706 156.25256,323.31706   C 156.25256,327.12127 156.25256,331.36595 156.25256,331.36595   C 156.25256,336.85201 160.69747,341.33696 166.18353,341.33696   L 405.68803,341.33696   C 411.17409,341.33696 415.65904,336.85201 415.65904,331.36595   C 415.65904,331.36595 415.65904,327.12127 415.65904,323.31706   C 419.90373,323.31706 424.98935,323.31706 424.98935,323.31706   C 430.47541,323.31706 434.96036,318.87216 434.96036,313.3861   C 434.96036,313.3861 434.96036,306.81884 434.96036,302.09363   C 446.01257,301.45292 459.06698,298.97018 466.83556,291.60204   C 471.24043,287.3974 473.56299,282.07151 473.56299,276.18501   L 473.56299,166.66406   C 473.56299,160.73751 471.24043,155.41163 466.83556,151.24703  "
     style="fill:#002060;fill-rule:evenodd;fill-opacity:1;stroke:none;" />
  <path
     id="path7"
     d="  M 166.7041,331.56617   L 166.7041,312.82548   L 146.68199,312.82548   L 147.40279,313.58632   L 147.40279,292.44297   L 147.40279,291.68213   L 146.64195,291.72217   C 146.36164,291.72217 121.41409,292.84341 112.16387,284.03368   C 109.92139,281.91134 108.76011,279.30846 108.76011,276.34519   L 108.76011,166.78419   C 108.76011,163.82092 109.92139,161.25809 112.16387,159.0957   C 121.41409,150.28597 146.36164,151.40721 146.64195,151.40721   L 147.40279,151.44725   L 147.40279,150.68641   L 147.40279,129.54306   L 146.68199,130.3039   L 165.98331,130.3039   L 166.7041,130.3039   L 166.7041,129.54306   L 166.7041,111.56321   L 165.98331,112.284   L 287.99806,112.284   L 405.64799,112.284   L 404.88715,111.56321   L 404.88715,129.54306   L 404.88715,130.3039   L 405.64799,130.3039   L 424.9493,130.3039   L 424.22851,129.54306   L 424.22851,150.68641   L 424.22851,151.44725   L 424.98935,151.40721   C 425.22961,151.40721 450.21721,150.28597 459.46743,159.0957   C 461.7099,161.25809 462.83114,163.82092 462.83114,166.78419   L 462.83114,276.34519   C 462.83114,279.30846 461.7099,281.91134 459.46743,284.03368   C 450.17717,292.84341 425.22961,291.72217 424.98935,291.72217   L 424.22851,291.68213   L 424.22851,292.44297   L 424.22851,313.58632   L 424.9493,312.82548   L 405.64799,312.82548   L 404.88715,312.82548   L 404.88715,313.58632   L 404.88715,331.56617   L 405.64799,330.84538   L 287.99806,330.84538   L 165.98331,330.84538   z  M 287.99806,332.32701   L 406.36878,332.32701   L 406.36878,313.58632   L 405.64799,314.30711   L 424.9493,314.30711   L 425.71014,314.30711   L 425.71014,313.58632   L 425.71014,292.44297   L 424.90926,293.20381   C 425.95041,293.24385 450.73778,294.36509 460.46853,285.11487   C 463.03136,282.67218 464.31278,279.7089 464.31278,276.34519   L 464.31278,166.78419   C 464.31278,163.42048 463.03136,160.45721 460.46853,158.01451   C 450.77783,148.80434 425.95041,149.88553 424.90926,149.92557   L 425.71014,150.68641   L 425.71014,129.54306   L 425.71014,128.82227   L 424.9493,128.82227   L 405.64799,128.82227   L 406.36878,129.54306   L 406.36878,111.56321   L 406.36878,110.80237   L 405.64799,110.80237   L 287.99806,110.80237   L 165.98331,110.80237   L 165.22247,110.80237   L 165.22247,111.56321   L 165.22247,129.54306   L 165.98331,128.82227   L 146.68199,128.82227   L 145.92115,128.82227   L 145.92115,129.54306   L 145.92115,150.68641   L 146.68199,149.92557   C 145.64084,149.88553 120.85347,148.80434 111.16277,158.01451   C 108.59994,160.45721 107.27848,163.42048 107.27848,166.78419   L 107.27848,276.34519   C 107.27848,279.7089 108.59994,282.67218 111.16277,285.11487   C 120.85347,294.36509 145.64084,293.24385 146.68199,293.20381   L 145.92115,292.44297   L 145.92115,313.58632   L 145.92115,314.30711   L 146.68199,314.30711   L 165.98331,314.30711   L 165.22247,313.58632   L 165.22247,331.56617   L 165.22247,332.32701   L 165.98331,332.32701   L 287.99806,332.32701  "
     style="fill:#002060;fill-rule:evenodd;fill-opacity:1;stroke:none;" />
  <path
     id="path9"
     d="  M 541.03751,226.12973   C 541.03751,226.12973 534.63043,247.79366 550.72821,253.19963   C 550.72821,253.19963 558.57688,235.3399 545.24215,227.45119   C 545.24215,227.45119 553.29104,239.94499 547.56472,244.91047   C 547.56472,244.91047 549.72711,240.14521 544.40122,233.73814   C 540.23662,228.69256 541.03751,226.12973 541.03751,226.12973   z "
     style="fill:#002060;fill-rule:evenodd;fill-opacity:1;stroke:none;" />
  <path
     id="path11"
     d="  M 546.80388,225.00849   C 546.80388,225.00849 556.45454,245.27087 571.2709,236.82154   C 571.2709,236.82154 565.14413,218.12089 550.64812,222.68593   C 550.64812,222.68593 562.78152,226.16978 563.6625,233.33769   C 563.6625,233.33769 562.06073,228.29212 554.13197,227.81159   C 547.92512,227.45119 546.80388,225.00849 546.80388,225.00849   z "
     style="fill:#002060;fill-rule:evenodd;fill-opacity:1;stroke:none;" />
  <path
     id="path13"
     d="  M 547.76494,218.44124   C 547.76494,218.44124 555.65365,197.5782 571.03063,204.46581   C 571.03063,204.46581 566.50564,223.44677 551.72932,220.36336   C 551.72932,220.36336 565.78484,215.5981 563.78263,208.63041   C 563.78263,208.63041 562.62135,213.75607 554.81272,214.99744   C 548.68596,215.9585 547.76494,218.44124 547.76494,218.44124   z "
     style="fill:#002060;fill-rule:evenodd;fill-opacity:1;stroke:none;" />
  <path
     id="path15"
     d="  M 541.91848,217.84058   C 541.91848,217.84058 533.7895,196.61714 549.24658,189.6094   C 549.24658,189.6094 558.49679,206.82842 545.96295,216.11868   C 545.96295,216.11868 552.24989,202.26338 546.80388,198.25895   C 546.80388,198.25895 549.32666,202.86404 544.60145,209.87178   C 540.91738,215.31779 541.91848,217.84058 541.91848,217.84058   z "
     style="fill:#002060;fill-rule:evenodd;fill-opacity:1;stroke:none;" />
  <path
     id="path17"
     d="  M 542.39901,215.5981   C 539.31561,215.35784 540.67711,218.52133 540.43685,221.76491   C 540.23662,225.00849 538.51472,227.13084 541.59813,227.3711   C 544.72158,227.61137 547.40454,225.12863 547.64481,221.88504   C 547.84503,218.64146 545.52246,215.79832 542.39901,215.5981   z "
     style="fill:#002060;fill-rule:evenodd;fill-opacity:1;stroke:none;" />
  <path
     id="path19"
     d="  M 503.11563,173.23131   C 501.43377,173.95211 499.832,174.23242 498.35037,174.19237   C 499.832,174.27246 501.43377,173.99215 503.11563,173.23131   z  M 565.10409,178.39702   C 566.3855,178.35697 567.70696,178.39702 569.10851,178.51715   C 567.74701,178.39702 566.3855,178.35697 565.10409,178.39702   z  M 542.63928,253.51998   C 538.79503,247.79366 539.07534,242.3076 534.47026,234.73924   C 528.10323,224.40783 515.40921,225.2888 506.91983,224.12752   C 500.23245,223.40673 494.54617,222.72597 489.90104,222.16535   C 506.91983,222.64589 541.95853,223.64699 542.39901,223.64699   C 543.03972,223.64699 543.52025,222.88615 543.52025,221.92509   C 543.52025,220.96403 543.03972,220.16314 542.39901,220.16314   C 541.95853,220.16314 509.8831,221.08416 492.18356,221.56469   C 497.109,221.08416 502.03444,220.4835 506.95987,219.68261   C 506.95987,219.60252 512.36585,220.00297 518.81297,218.96182   C 525.34017,218.36115 532.74836,213.27554 534.79061,209.27111   C 537.39349,205.74722 538.23441,200.06094 541.31782,193.17334   C 544.08087,187.04657 551.88949,178.67733 565.10409,178.39702   C 552.45011,178.51715 545.44237,184.4437 541.31782,189.12887   C 536.35234,194.53484 535.15101,200.34125 531.10654,206.42797   C 526.62159,214.31669 516.04991,219.0419 506.91983,219.60252   C 495.06674,220.1231 483.81431,219.28217 478.28821,218.64146   C 487.97891,216.75938 500.1924,213.67598 508.68178,208.67045   C 508.64173,208.63041 514.44814,207.38904 520.61496,203.4647   C 526.86185,199.74059 532.74836,192.53263 534.31008,187.92754   C 535.99194,183.52268 537.03309,177.1156 535.15101,167.90543   C 533.54924,161.41827 529.78508,149.68531 519.01319,144.55965   C 522.69725,146.6019 525.30013,149.68531 527.02203,152.36827   C 529.90522,157.05345 530.94637,161.37822 531.34681,165.06229   C 531.98751,172.51052 530.86628,177.71627 528.10323,185.00431   C 524.69947,193.73396 518.17226,204.86625 508.64173,208.59036   C 497.62957,212.71492 486.41719,212.99523 480.57073,212.63483   C 487.21807,210.4324 500.11231,205.94744 511.40478,194.81515   C 519.25345,187.00653 526.1811,171.18906 519.13332,158.45499   C 513.56717,149.12469 505.15788,146.80212 497.26917,149.68531   C 493.34484,150.96672 488.53953,154.77093 488.17913,161.5384   C 487.37825,166.42379 491.14241,173.19127 497.22913,174.07224   C 490.90214,172.99105 487.13798,165.18242 489.02006,160.05676   C 490.8621,153.04902 497.14904,151.32712 501.23355,151.36717   C 510.04328,151.72756 513.16673,157.61407 515.24903,160.97778   C 517.53155,164.50167 520.01429,173.43153 517.89195,181.36029   C 516.04991,189.28905 511.24461,194.77511 511.36474,194.77511   C 502.95545,202.78395 489.62073,206.74833 478.88887,208.79058   C 482.01232,207.34899 487.21807,206.54811 491.78311,201.10209   C 495.74749,197.17776 500.03222,187.20675 493.5851,180.9198   C 488.61962,176.91538 483.93445,177.95653 480.17029,180.87976   C 478.28821,182.44148 476.6464,185.28462 477.12693,188.84856   C 477.40724,191.85188 480.01011,194.53484 483.69418,195.29568   C 479.84994,194.45475 477.24706,191.13108 477.76764,187.96759   C 478.12803,184.28352 480.811,182.48153 482.85325,182.08109   C 487.25812,181.32025 489.30037,183.48263 490.58179,184.60387   C 491.98334,185.72511 494.54617,189.249 494.18577,193.57378   C 493.98555,197.73838 491.70303,201.06205 491.74307,201.022   C 486.3371,206.18771 479.04905,207.06868 472.4818,206.14766   L 472.4818,237.86269   C 474.24374,238.22309 482.41277,235.21977 491.78311,242.70804   C 496.66851,247.55339 494.70634,256.60339 490.8621,259.44653   C 487.97891,262.08945 484.69529,262.85029 481.05126,261.36865   C 479.32936,260.56777 477.2871,258.44542 477.32715,254.96157   C 477.16697,251.39764 480.97117,247.55339 486.09683,247.79366   C 480.97117,247.4733 476.44618,251.27751 476.6464,255.84255   C 476.52626,260.20737 479.40945,263.25073 481.93223,264.45205   C 487.17803,266.89475 491.58289,265.29298 493.82537,263.17064   C 496.3882,261.12838 498.55059,254.441 496.62847,249.63569   C 494.98665,244.87043 491.74307,242.70804 491.82316,242.668   C 488.53953,238.22309 483.49396,236.82154 479.76985,235.21977   C 486.45723,236.10074 499.55169,238.58349 511.36474,248.99498   C 520.13442,257.36423 521.21562,273.58214 515.56938,283.03257   C 511.20456,290.60093 505.39815,293.72438 497.70966,292.32283   C 494.06563,291.68213 489.18024,288.83899 488.37935,282.23169   C 486.81763,276.14497 493.42493,265.81356 503.27581,270.09829   C 493.38488,265.53325 485.73644,276.58545 487.89882,283.99364   C 489.46055,291.96244 496.46829,294.76553 501.03333,295.28611   C 511.3247,296.3673 516.97093,289.88014 519.45367,285.51532   C 522.45699,280.91023 523.81849,269.61776 520.21451,261.52883   C 516.97093,253.27972 511.28465,248.99498 511.40478,248.95494   C 503.91651,240.02508 490.90214,234.61911 480.17029,231.13526   C 488.81984,231.21535 500.1924,232.33659 508.64173,235.21977   C 508.56164,235.25982 513.76739,238.42331 518.33243,243.50893   C 523.05765,248.59454 526.34128,255.4421 527.58265,259.00604   C 528.86407,262.48989 531.22667,266.9348 531.18663,275.264   C 531.0665,279.38855 530.22557,284.51421 527.22225,289.80005   C 524.37911,294.92571 518.65279,300.65203 510.40368,300.81221   C 518.53266,300.65203 523.89858,295.72659 527.2623,291.60204   C 530.66606,287.27726 532.54813,283.11266 533.7895,279.34851   C 536.15211,271.78015 536.87291,265.2129 533.7895,256.08281   C 529.30455,244.30981 517.13111,239.30428 508.68178,235.13968   C 496.54838,229.21314 484.53511,226.45009 478.60856,225.04854   C 487.17803,224.48792 498.39041,224.04743 506.91983,224.20761   C 506.91983,224.24765 512.36585,225.20872 518.2123,227.45119   C 524.29902,229.49345 529.10433,234.37884 530.78619,237.58238   C 532.98862,240.46556 534.55035,244.87043 539.07534,252.19852   C 543.52025,259.00604 553.49126,267.29519 569.1886,265.73347   C 553.57135,266.97484 545.96295,259.00604 542.63928,253.51998   z  M 519.01319,144.55965   C 516.61053,143.19814 513.76739,142.27713 510.40368,142.19704   C 513.6873,142.55744 516.53044,143.35832 519.01319,144.55965   z  M 483.69418,195.29568   C 484.45502,195.45586 485.25591,195.53595 486.09683,195.4959   C 485.25591,195.53595 484.45502,195.45586 483.69418,195.29568  "
     style="fill:#002060;fill-rule:evenodd;fill-opacity:1;stroke:none;" />
  <path
     id="path21"
     d="  M 30.553743,226.12973   C 30.553743,226.12973 36.940797,247.79366 20.843019,253.17961   C 20.843019,253.17961 12.994351,235.3399 26.329077,227.43117   C 26.329077,227.43117 18.280188,239.94499 23.98649,244.91047   C 23.98649,244.91047 21.844124,240.12519 27.170006,233.71811   C 31.334605,228.69256 30.553743,226.12973 30.553743,226.12973   z "
     style="fill:#002060;fill-rule:evenodd;fill-opacity:1;stroke:none;" />
  <path
     id="path23"
     d="  M 24.727308,225.00849   C 24.727308,225.00849 15.096672,245.27087 0.28030957,236.80152   C 0.28030957,236.80152 6.4070758,218.12089 20.923107,222.68593   C 20.923107,222.68593 8.7897072,226.16978 7.8887121,233.31767   C 7.8887121,233.31767 9.5105032,228.29212 17.419237,227.79157   C 23.626092,227.43117 24.727308,225.00849 24.727308,225.00849   z "
     style="fill:#002060;fill-rule:evenodd;fill-opacity:1;stroke:none;" />
  <path
     id="path25"
     d="  M 23.88638,218.44124   C 23.88638,218.44124 15.897557,197.5782 0.28030957,204.46581   C 0.28030957,204.46581 4.8853953,223.42675 19.861935,220.34334   C 19.861935,220.34334 5.6061913,215.57808 7.6484468,208.63041   C 7.6484468,208.63041 8.8497735,213.73605 16.77853,214.97742   C 22.965362,215.9585 23.88638,218.44124 23.88638,218.44124   z "
     style="fill:#002060;fill-rule:evenodd;fill-opacity:1;stroke:none;" />
  <path
     id="path27"
     d="  M 29.492571,217.82056   C 29.492571,217.82056 37.621548,196.61714 22.164478,189.6094   C 22.164478,189.6094 12.914262,206.80839 25.428082,216.09865   C 25.428082,216.09865 19.161161,202.26338 24.567131,198.25895   C 24.567131,198.25895 22.064367,202.86404 26.789586,209.85176   C 30.493677,215.31779 29.492571,217.82056 29.492571,217.82056   z "
     style="fill:#002060;fill-rule:evenodd;fill-opacity:1;stroke:none;" />
  <path
     id="path29"
     d="  M 29.01204,215.57808   C 31.975313,215.33781 30.673876,218.50131 30.874097,221.76491   C 31.09434,225.00849 32.736153,227.13084 29.752858,227.35108   C 26.789586,227.59135 24.206733,225.12863 24.006512,221.88504   C 23.806291,218.62144 26.028746,215.79832 29.01204,215.57808   z "
     style="fill:#002060;fill-rule:evenodd;fill-opacity:1;stroke:none;" />
  <path
     id="path31"
     d="  M 73.300952,174.19237   C 71.819316,174.23242 70.217547,173.95211 68.515667,173.21129   C 70.217547,173.97213 71.819316,174.27246 73.300952,174.19237   z  M 2.2825208,178.49713   C 3.7040907,178.39702 5.0255501,178.35697 6.3269874,178.377   C 5.005528,178.35697 3.6840686,178.377 2.2825208,178.49713   z  M 2.2024323,265.73347   C 17.979857,267.29519 27.97089,258.98602 32.415799,252.1785   C 36.980841,244.87043 38.542566,240.44554 40.744998,237.58238   C 42.426855,234.37884 47.252184,229.47343 53.358928,227.43117   C 59.245429,225.18869 64.711466,224.24765 64.691444,224.18759   C 73.28093,224.02741 84.513335,224.48792 93.082799,225.04854   C 87.136231,226.45009 75.102942,229.21314 62.94952,235.11966   C 54.440122,239.28426 42.246656,244.28979 37.721659,256.08281   C 34.638254,265.19287 35.379072,271.76013 37.721659,279.32848   C 38.983052,283.11266 40.865131,287.25724 44.288912,291.60204   C 47.652626,295.72659 53.058597,300.63201 61.207596,300.81221   C 52.918442,300.65203 47.192118,294.92571 44.328956,289.80005   C 41.305617,284.51421 40.464688,279.36853 40.344556,275.264   C 40.324533,266.91477 42.687143,262.46987 43.98858,258.98602   C 45.209929,255.4421 48.493555,248.57452 53.218774,243.50893   C 57.843881,238.40329 63.029608,235.25982 62.989564,235.21977   C 71.438895,232.31657 82.851499,231.19533 91.541096,231.13526   C 80.749178,234.59909 67.694761,240.02508 60.186469,248.93492   C 60.326623,248.97496 54.620321,253.27972 51.336695,261.5088   C 47.712693,269.59774 49.094219,280.91023 52.117557,285.51532   C 54.580277,289.88014 60.246535,296.3673 70.577945,295.28611   C 75.163008,294.76553 82.19077,291.96244 83.772516,283.97361   C 85.954927,276.58545 78.266436,265.51323 68.35549,270.07827   C 78.206369,265.79354 84.85371,276.12495 83.312008,282.21167   C 82.471079,288.81897 77.585684,291.68213 73.941659,292.32283   C 66.233146,293.72438 60.406712,290.58091 56.021869,283.01255   C 50.335589,273.56212 51.436806,257.34421 60.226513,248.97496   C 72.079603,238.56346 85.214109,236.08072 91.921516,235.21977   C 88.197403,236.82154 83.111787,238.20307 79.848183,242.64797   C 79.928271,242.68802 76.664667,244.85041 75.022854,249.63569   C 73.100731,254.42098 75.263119,261.12838 77.825949,263.15062   C 80.10847,265.27296 84.513335,266.89475 89.759128,264.43203   C 92.281914,263.23071 95.18512,260.20737 95.08501,255.82252   C 95.265209,251.27751 90.720189,247.4733 85.594529,247.77364   C 90.760234,247.55339 94.544413,251.37762 94.384236,254.94155   C 94.42428,258.4254 92.382025,260.54774 90.640101,261.34863   C 86.976054,262.83026 83.71245,262.08945 80.829266,259.44653   C 76.944976,256.58336 74.982809,247.55339 79.888227,242.70804   C 89.278597,235.19975 97.487663,238.22309 99.229587,237.86269   L 99.229587,206.14766   C 92.682356,207.04866 85.334241,206.16769 79.908249,201.04203   C 79.968315,201.06205 77.665772,197.71836 77.465551,193.55376   C 77.105153,189.249 79.708028,185.72511 81.069531,184.60387   C 82.390991,183.48263 84.413224,181.32025 88.858133,182.06106   C 90.880366,182.46151 93.583351,184.2635 93.943749,187.96759   C 94.464324,191.11106 91.841428,194.43473 88.017204,195.29568   C 91.721295,194.53484 94.304147,191.85188 94.584457,188.84856   C 95.064988,185.28462 93.403152,182.44148 91.541096,180.85974   C 87.776939,177.93651 83.05172,176.89536 78.086237,180.9198   C 71.599072,187.20675 75.903826,197.15774 79.868205,201.08207   C 84.47329,206.52808 89.699062,207.34899 92.842533,208.77056   C 82.070637,206.72831 68.695866,202.76393 60.246535,194.75508   C 60.366668,194.75508 55.541339,189.28905 53.699304,181.36029   C 51.57696,173.43153 54.019658,164.48165 56.342223,160.95776   C 58.404501,157.59404 61.547972,151.72756 70.397746,151.36717   C 74.482256,151.3071 80.789222,153.029 82.651278,160.03674   C 84.553379,165.1624 80.7692,172.97103 74.42219,174.07224   C 80.528934,173.17125 84.313113,166.40377 83.492207,161.51838   C 83.151831,154.77093 78.30648,150.96672 74.362124,149.68531   C 66.45339,146.7821 58.02408,149.10467 52.457933,158.45499   C 45.350084,171.18906 52.337801,187.00653 60.206491,194.79513   C 71.518984,205.92742 84.453268,210.4324 91.140654,212.61481   C 85.254153,212.9752 74.021748,212.6949 62.969542,208.59036   C 53.418995,204.84623 46.83172,193.73396 43.447983,185.00431   C 40.684932,177.71627 39.563693,172.49049 40.164357,165.06229   C 40.584821,161.37822 41.625971,157.05345 44.529177,152.36827   C 46.231057,149.66529 48.853953,146.6019 52.538022,144.55965   C 41.746103,149.66529 37.981946,161.41827 36.340133,167.90543   C 34.498099,177.09558 35.519227,183.50266 37.201084,187.90752   C 38.782831,192.51261 44.689354,199.74059 50.936253,203.4647   C 57.143108,207.38904 62.969542,208.61038 62.929498,208.67045   C 71.458918,213.67598 83.692428,216.75938 93.423174,218.62144   C 87.877049,219.26215 76.6046,220.10308 64.671422,219.60252   C 55.521316,219.0419 44.909597,214.31669 40.424644,206.40795   C 36.360155,200.34125 35.158829,194.53484 30.173323,189.10885   C 26.028746,184.4437 19.021006,178.51715 6.3269874,178.377   C 19.561603,178.67733 27.430293,187.02655 30.173323,193.15331   C 33.256728,200.04092 34.117679,205.74722 36.740575,209.25109   C 38.762809,213.25551 46.191012,218.34113 52.738243,218.94179   C 59.225407,220.00297 64.671422,219.60252 64.671422,219.66259   C 69.576839,220.4835 74.522301,221.08416 79.467762,221.56469   C 61.728171,221.06414 29.532615,220.16314 29.092129,220.16314   C 28.471443,220.16314 27.97089,220.94401 27.97089,221.90507   C 27.97089,222.86613 28.471443,223.62697 29.092129,223.62697   C 29.552637,223.62697 64.691444,222.64589 81.770305,222.16535   C 77.105153,222.70595 71.418873,223.3867 64.671422,224.12752   C 56.162024,225.26878 43.427961,224.38781 37.040907,234.73924   C 32.455843,242.3076 32.716131,247.77364 28.871885,253.49996   C 25.508171,258.98602 17.879746,266.97484 2.2024323,265.73347   z  M 61.207596,142.19704   C 57.823859,142.27713 54.960697,143.19814 52.538022,144.55965   C 55.040786,143.35832 57.903948,142.53742 61.207596,142.19704   z  M 85.594529,195.4959   C 86.435457,195.53595 87.256364,195.45586 88.017204,195.29568   C 87.256364,195.43583 86.435457,195.51592 85.594529,195.4959  "
     style="fill:#002060;fill-rule:evenodd;fill-opacity:1;stroke:none;" />
  <path
     id="path33"
     d="  M 268.89696,94.604479   C 240.18526,78.30648 203.1043,75.263119 172.951,91.300831   C 172.91096,91.120632 158.11462,99.549941 144.55965,113.7256   C 131.52525,128.80225 108.90027,139.45401 96.106137,137.31164   C 84.593423,136.69096 66.052947,129.40291 59.425628,105.27626   C 56.422312,93.743528 58.824965,77.205264 72.119647,65.592439   C 85.13402,53.899525 105.93699,48.63371 129.70324,48.653732   C 106.11719,48.63371 87.336452,54.079724 75.503384,63.61025   C 63.510139,73.100731 59.705938,85.674617 60.266557,95.625607   C 62.108591,115.16719 74.181925,130.36397 96.386447,132.80667   C 110.42195,133.74771 125.01807,127.12039 136.85114,117.68997   C 148.40389,107.71896 160.23696,97.707906 172.91096,91.260786   C 198.73948,77.145197 223.24655,77.325396 239.6847,80.268647   C 256.42319,83.251942 266.43424,88.217425 271.05935,90.459902   C 281.59098,95.965983 286.136,101.27184 285.69552,102.37306   C 285.19496,103.57439 280.26952,100.63113 268.89696,94.604479   z "
     style="fill:#002060;fill-rule:evenodd;fill-opacity:1;stroke:none;" />
  <path
     id="path35"
     d="  M 94.42428,125.35844   C 81.109576,120.27283 72.780377,104.69562 76.98502,91.300831   C 79.908249,77.725839 92.061671,67.834915 105.09607,65.932815   C 104.91587,65.852726 118.19053,62.208702 133.60755,66.213124   C 149.08465,70.237569 163.6207,80.789222 171.84979,84.253047   C 179.85863,87.937116 189.52931,94.664545 207.48915,96.826933   C 225.56911,99.850272 251.83812,86.976054 271.19951,54.740454   C 251.53779,86.075059 231.1753,97.347508 214.85728,98.889211   C 198.41913,100.27074 186.40586,96.346403 169.80753,88.197403   C 159.41606,83.191875 149.68531,75.443318 139.09361,70.43779   C 128.34174,65.632483 115.98809,63.490117 105.11609,66.012903   C 81.229708,70.658033 75.363229,94.264103 79.688006,105.07604   C 84.313113,116.82902 93.062776,119.77227 96.066093,121.05369   C 103.91476,124.13709 108.49982,122.65546 109.32073,123.83676   C 110.42195,124.29727 105.25624,129.26275 94.42428,125.35844   z "
     style="fill:#002060;fill-rule:evenodd;fill-opacity:1;stroke:none;" />
  <path
     id="path37"
     d="  M 280.56985,84.913777   C 271.86024,66.713677 250.85704,60.026292 233.33769,61.007375   C 215.21768,61.728171 198.07875,67.734805 182.26129,75.543428   C 182.16117,75.062898 165.96329,82.851499 147.80323,92.061671   C 138.55301,96.146182 127.90125,99.029366 118.55092,98.40868   C 109.12051,97.968194 102.11277,93.563329 98.68899,89.638995   C 95.265209,85.754706 92.201826,80.168536 92.141759,72.600178   C 92.021627,65.272085 95.665651,55.561361 105.95702,49.734926   C 115.34739,44.669332 133.90788,39.944113 144.77989,55.060808   C 158.93552,69.576839 130.88455,98.448725 109.48091,83.211897   C 119.0715,91.881472 132.3862,86.815877 139.67425,81.269752   C 147.96341,75.583473 151.14692,65.592439 147.56297,58.084147   C 144.31938,50.71601 138.23266,45.830614 131.96574,43.828403   C 125.53864,41.926302 119.49196,42.546988 114.02593,43.367895   C 103.07383,45.350084 93.883683,51.536916 89.238553,61.047419   C 84.633467,70.297635 84.433246,83.512229 93.66344,94.184015   C 106.05713,107.91918 126.90015,105.33633 141.11585,98.648946   C 156.23254,92.081693 168.28585,81.109576 182.30133,75.623517   C 210.15209,63.069653 235.48006,61.487906 251.37762,67.334363   C 267.61555,73.180819 272.22063,83.832583 274.1828,87.877049   C 278.60769,97.908127 279.20835,104.87582 281.29065,105.2162   C 282.55204,105.83688 286.29618,98.989322 280.56985,84.913777   z "
     style="fill:#002060;fill-rule:evenodd;fill-opacity:1;stroke:none;" />
  <path
     id="path39"
     d="  M 285.17494,98.729034   C 283.65326,86.875944 280.7901,74.962787 275.20393,64.551289   C 275.12384,64.611355 274.04265,58.704832 270.17838,52.538022   C 266.55438,46.251079 259.08613,40.76502 254.54111,39.823981   C 250.19631,38.68272 244.06954,38.442455 235.98061,41.706059   C 228.85274,45.02973 215.69821,51.677071 213.95629,69.096308   C 215.9585,51.817226 228.33216,47.87287 233.93836,45.890681   C 240.68581,44.26889 245.71136,44.389022 252.67905,46.351189   C 261.08834,48.393445 271.63999,54.940675 275.12384,64.591333   C 281.65105,83.952715 277.54652,95.725717 278.1672,98.989322   C 278.3474,106.81797 285.39518,108.07936 285.17494,98.729034   z "
     style="fill:#002060;fill-rule:evenodd;fill-opacity:1;stroke:none;" />
  <path
     id="path41"
     d="  M 288.49861,99.229587   C 287.69773,88.35758 286.99695,77.465551 285.33512,66.673633   C 285.27505,66.673633 285.65547,61.267663 284.67439,54.780498   C 284.13379,48.25329 279.42859,40.845108 275.74453,38.822875   C 272.52097,36.220001 267.25515,35.35905 260.92816,32.275644   C 254.72131,29.272328 246.03171,20.142245 247.43326,4.4449089   C 246.292,19.72178 252.45881,27.730625 257.20405,32.275644   C 262.18956,37.241128 267.53546,38.462477 273.14165,42.506944   C 280.40968,46.991897 284.75448,57.563572 285.27505,66.693655   C 286.01587,85.454374 283.67328,95.965983 283.81344,99.249609   C 283.83346,106.71786 288.51863,107.69894 288.49861,99.229587   z "
     style="fill:#002060;fill-rule:evenodd;fill-opacity:1;stroke:none;" />
  <path
     id="path43"
     d="  M 308.30048,94.624501   C 336.97214,78.326502 374.01305,75.283141 404.12631,91.300831   C 404.16635,91.140654 418.94267,99.549941 432.47762,113.7256   C 445.45195,128.82227 468.07693,139.47403 480.85104,137.31164   C 492.34373,136.71098 510.84416,129.42293 517.45146,105.27626   C 520.49482,93.743528 518.05212,77.205264 504.79749,65.592439   C 491.78311,53.899525 471.04021,48.653732 447.29398,48.653732   C 470.83998,48.653732 489.58068,54.099747 501.43377,63.630272   C 513.40699,73.120753 517.17115,85.694639 516.65058,95.625607   C 514.80854,115.16719 502.75523,130.38399 480.57073,132.82669   C 466.55525,133.74771 451.97916,127.14041 440.16611,117.68997   C 428.63337,107.71896 416.82033,97.707906 404.12631,91.260786   C 378.37787,77.16522 353.87081,77.325396 337.49272,80.288669   C 320.75423,83.251942 310.78322,88.217425 306.13809,90.459902   C 295.64651,95.986005 291.08146,101.27184 291.52195,102.39308   C 292.04253,103.59441 296.92792,100.63113 308.30048,94.624501   z "
     style="fill:#002060;fill-rule:evenodd;fill-opacity:1;stroke:none;" />
  <path
     id="path45"
     d="  M 482.69308,125.37847   C 496.0278,120.29285 504.357,104.71565 500.11231,91.300831   C 497.22913,77.725839 485.05568,67.834915 472.04131,65.952837   C 472.20149,65.872748 458.90681,62.228724 443.52982,66.233146   C 428.03271,70.237569 413.49666,80.809244 405.28759,84.253047   C 397.27875,87.937116 387.58804,94.664545 369.60819,96.826933   C 351.54824,99.870294 325.27923,86.976054 305.89783,54.740454   C 325.55954,86.095081 345.94205,97.347508 362.28009,98.909233   C 378.69823,100.27074 390.71149,96.346403 407.32985,88.217425   C 417.7013,83.211897 427.43205,75.443318 438.00372,70.43779   C 448.77562,65.632483 461.10924,63.470095 472.00127,66.032925   C 495.90767,70.678055 501.75413,94.264103 497.42935,105.07604   C 492.78422,116.84905 484.05458,119.77227 481.05126,121.05369   C 473.20259,124.13709 468.63755,122.65546 467.79662,123.85678   C 466.71543,124.29727 471.88113,129.26275 482.69308,125.37847   z "
     style="fill:#002060;fill-rule:evenodd;fill-opacity:1;stroke:none;" />
  <path
     id="path47"
     d="  M 296.52748,84.933799   C 305.21707,66.713677 326.24029,60.026292 343.73962,61.027397   C 361.87965,61.748193 379.01858,67.754827 394.83605,75.563451   C 394.91614,75.08292 411.13405,82.851499 429.27408,92.061671   C 438.5243,96.146182 449.17606,99.029366 458.50636,98.428702   C 467.9568,97.988216 474.96454,93.583351 478.3683,89.618973   C 481.8121,85.734683 484.89551,80.168536 484.93555,72.600178   C 485.05568,65.272085 481.41166,55.581383 471.12029,49.734926   C 461.7099,44.689354 443.16943,39.964135 432.2774,55.060808   C 418.14179,69.596861 446.17274,98.468747 467.5964,83.211897   C 458.02583,91.901494 444.69111,86.815877 437.40306,81.289775   C 429.1139,75.603495 425.91037,65.592439 429.51435,58.104169   C 432.75793,50.736032 438.84465,45.850636 445.13159,43.848425   C 451.53867,41.926302 457.58535,42.56701 463.07141,43.367895   C 474.00348,45.370106 483.21365,51.536916 487.85878,61.067441   C 492.46387,70.317657 492.62404,83.532251 483.41387,94.184015   C 471.04021,107.91918 450.17717,105.35635 435.96147,98.668968   C 420.86479,92.101715 408.81148,81.129598 394.796,75.643539   C 366.92522,63.069653 341.57723,61.507928 325.71972,67.354385   C 309.46176,73.200841 304.85668,83.852605 302.89451,87.897072   C 298.48965,97.908127 297.88898,104.87582 295.80668,105.23622   C 294.52527,105.83688 290.76111,98.989322 296.52748,84.933799   z "
     style="fill:#002060;fill-rule:evenodd;fill-opacity:1;stroke:none;" />
  <path
     id="path49"
     d="  M 291.8423,98.749056   C 293.36398,86.895966 296.24717,74.962787 301.85336,64.551289   C 301.93345,64.631377 303.01464,58.704832 306.89893,52.538022   C 310.54296,46.251079 318.03123,40.76502 322.59627,39.844003   C 326.96109,38.68272 333.1279,38.442455 341.25688,41.726081   C 348.42479,45.049752 361.59934,51.697093 363.36129,69.11633   C 361.35908,51.817226 348.94537,47.892892 343.29913,45.890681   C 336.53166,44.288912 331.44604,44.409044 324.47835,46.371211   C 316.02902,48.413467 305.4173,54.940675 301.93345,64.591333   C 295.3662,83.972738 299.49075,95.745739 298.85004,98.989322   C 298.68987,106.83799 291.60204,108.07936 291.8423,98.749056   z "
     style="fill:#002060;fill-rule:evenodd;fill-opacity:1;stroke:none;" />
  <path
     id="path51"
     d="  M 288.59872,99.229587   C 289.43965,88.377602 290.1204,77.485573 291.76222,66.673633   C 291.8423,66.673633 291.48191,61.267663 292.44297,54.780498   C 293.00359,48.25329 297.68876,40.845108 301.37283,38.842897   C 304.61641,36.240023 309.8622,35.35905 316.18919,32.275644   C 322.39605,29.272328 331.08564,20.142245 329.6841,4.4449089   C 330.80533,19.701758 324.63852,27.750647 319.9133,32.275644   C 314.90778,37.241128 309.5819,38.482499 303.9757,42.526966   C 296.68766,47.011919 292.36288,57.583594 291.8423,66.713677   C 291.08146,85.454374 293.44407,95.986005 293.2839,99.269631   C 293.2839,106.71786 288.59872,107.71896 288.59872,99.229587   z "
     style="fill:#002060;fill-rule:evenodd;fill-opacity:1;stroke:none;" />
  <path
     id="path53"
     d="  M 293.08367,30.553743   C 293.08367,30.553743 314.7476,36.920774 320.15357,20.863041   C 320.15357,20.863041 302.29385,13.014373 294.40513,26.349099   C 294.40513,26.349099 306.89893,18.30021 311.86442,24.026534   C 311.86442,24.026534 307.09915,21.864146 300.69208,27.190028   C 295.64651,31.354627 293.08367,30.553743 293.08367,30.553743   z "
     style="fill:#002060;fill-rule:evenodd;fill-opacity:1;stroke:none;" />
  <path
     id="path55"
     d="  M 291.96244,24.727308   C 291.96244,24.727308 312.22481,15.07665 303.75546,0.28030957   C 303.75546,0.28030957 285.07483,6.4070758 289.63987,20.903085   C 289.63987,20.903085 293.12372,8.7897072 300.27161,7.8887121   C 300.27161,7.8887121 295.24606,9.5105032 294.76553,17.419237   C 294.38511,23.60607 291.96244,24.727308 291.96244,24.727308   z "
     style="fill:#002060;fill-rule:evenodd;fill-opacity:1;stroke:none;" />
  <path
     id="path57"
     d="  M 285.67549,23.88638   C 285.67549,23.88638 264.43203,15.877535 271.45979,0.28030957   C 271.45979,0.28030957 290.74109,4.8853953 287.61764,19.861935   C 287.61764,19.861935 282.75227,5.6061913 275.68446,7.6484468   C 275.68446,7.6484468 280.87019,8.8497735 282.1516,16.758508   C 283.15271,22.965362 285.67549,23.88638 285.67549,23.88638   z "
     style="fill:#002060;fill-rule:evenodd;fill-opacity:1;stroke:none;" />
  <path
     id="path59"
     d="  M 284.75448,29.812925   C 284.75448,29.812925 263.81135,37.92188 256.8837,22.484832   C 256.8837,22.484832 273.88247,13.234616 283.0526,25.748436   C 283.0526,25.748436 269.37749,19.481515 265.43314,24.887485   C 265.43314,24.887485 269.99818,22.384721 276.88579,27.10994   C 282.29176,30.81403 284.75448,29.812925 284.75448,29.812925   z "
     style="fill:#002060;fill-rule:evenodd;fill-opacity:1;stroke:none;" />
  <path
     id="path61"
     d="  M 282.85238,29.01204   C 282.61211,31.975313 285.79563,30.673876 289.03921,30.874097   C 292.28279,31.09434 294.40513,32.736153 294.62538,29.77288   C 294.86564,26.789586 292.40292,24.226755 289.15934,24.006512   C 285.89574,23.806291 283.07262,26.048768 282.85238,29.01204   z "
     style="fill:#002060;fill-rule:evenodd;fill-opacity:1;stroke:none;" />
  <path
     id="path63"
     d="  M 288.49861,101.89253   C 288.49861,101.89253 286.99695,31.114362 286.99695,30.393566   C 286.99695,29.692792 287.6777,29.112151 288.49861,29.112151   C 289.33954,29.112151 290.02029,29.692792 290.02029,30.393566   C 290.02029,31.114362 288.49861,101.89253 288.49861,101.89253   z "
     style="fill:#002060;fill-rule:evenodd;fill-opacity:1;stroke:none;" />
  <path
     id="path65"
     d="  M 268.89696,347.60389   C 240.18526,363.92191 203.1043,366.96527 172.951,350.92756   C 172.91096,351.08773 158.11462,342.65842 144.55965,328.48277   C 131.52525,313.40612 108.90027,302.75435 96.106137,304.89672   C 84.593423,305.51741 66.052947,312.80546 59.425628,336.9321   C 56.422312,348.46484 58.824965,365.0031 72.119647,376.63595   C 85.13402,388.30884 105.93699,393.57465 129.70324,393.55463   C 106.11719,393.59468 87.336452,388.12864 75.503384,378.61814   C 63.510139,369.10763 59.705938,356.53375 60.266557,346.58276   C 62.108591,327.04118 74.181925,311.84439 96.386447,309.42172   C 110.42195,308.46066 125.01807,315.108 136.85114,324.51839   C 148.40389,334.4894 160.23696,344.50046 172.91096,350.9676   C 198.73948,365.08319 223.24655,364.88297 239.6847,361.93972   C 256.42319,358.95642 266.43424,353.99094 271.05935,351.76849   C 281.59098,346.24238 286.136,340.93652 285.69552,339.83531   C 285.19496,338.654 280.26952,341.57723 268.89696,347.60389   z "
     style="fill:#002060;fill-rule:evenodd;fill-opacity:1;stroke:none;" />
  <path
     id="path67"
     d="  M 94.42428,317.0101   C 81.109576,322.09572 72.780377,337.6529 76.98502,351.04769   C 79.908249,364.6427 92.061671,374.53363 105.09607,376.4157   C 104.91587,376.51582 118.19053,380.15984 133.60755,376.15542   C 149.08465,372.11095 163.6207,361.57932 171.84979,358.11549   C 179.85863,354.4114 189.52931,347.68397 207.48915,345.54161   C 225.56911,342.49825 251.83812,355.37247 271.19951,387.60807   C 251.53779,356.29348 231.1753,345.02103 214.85728,343.47933   C 198.41913,342.07778 186.40586,346.00212 169.80753,354.17114   C 159.41606,359.15664 149.68531,366.92522 139.09361,371.93075   C 128.34174,376.73606 115.98809,378.87842 105.11609,376.35564   C 81.229708,371.71051 75.363229,348.08442 79.688006,337.2925   C 84.313113,325.5195 93.062776,322.59627 96.066093,321.29483   C 103.91476,318.23145 108.49982,319.69306 109.32073,318.53178   C 110.42195,318.07127 105.25624,313.10579 94.42428,317.0101   z "
     style="fill:#002060;fill-rule:evenodd;fill-opacity:1;stroke:none;" />
  <path
     id="path69"
     d="  M 280.56985,357.33463   C 271.86024,375.51471 250.85704,382.22212 233.33769,381.22101   C 215.21768,380.50022 198.07875,374.49358 182.26129,366.70498   C 182.16117,367.18551 165.96329,359.39691 147.80323,350.16672   C 138.55301,346.08221 127.90125,343.19902 118.55092,343.83973   C 109.12051,344.26019 102.11277,348.66506 98.68899,352.60941   C 95.265209,356.4937 92.201826,362.05985 92.141759,369.62821   C 92.021627,376.97632 95.665651,386.66703 105.95702,392.49346   C 115.34739,397.57908 133.90788,402.28427 144.77989,387.1876   C 158.93552,372.65155 130.88455,343.77966 109.48091,359.03651   C 119.0715,350.36694 132.3862,355.43253 139.67425,360.95863   C 147.96341,366.64491 151.14692,376.65597 147.56297,384.16426   C 144.31938,391.51238 138.23266,396.41779 131.96574,398.39998   C 125.53864,400.32211 119.49196,399.70142 114.02593,398.88051   C 103.07383,396.8783 93.883683,390.71149 89.238553,381.18097   C 84.633467,371.93075 84.433246,358.73618 93.66344,348.04437   C 106.05713,334.3092 126.90015,336.89206 141.11585,343.57944   C 156.23254,350.16672 168.28585,361.11881 182.30133,366.62489   C 210.15209,379.15873 235.48006,380.74048 251.37762,374.89402   C 267.61555,369.04757 272.22063,358.41583 274.1828,354.37136   C 278.60769,344.32026 279.20835,337.37259 281.29065,337.01219   C 282.55204,336.41153 286.29618,343.23907 280.56985,357.33463   z "
     style="fill:#002060;fill-rule:evenodd;fill-opacity:1;stroke:none;" />
  <path
     id="path71"
     d="  M 285.17494,343.55942   C 283.65326,355.41251 280.7901,367.34569 275.20393,377.73716   C 275.12384,377.6771 274.04265,383.58362 270.17838,389.75043   C 266.55438,396.03737 259.08613,401.52343 254.54111,402.46447   C 250.19631,403.60573 244.06954,403.82598 235.98061,400.58239   C 228.85274,397.25872 215.69821,390.61138 213.95629,373.19214   C 215.9585,390.47123 228.33216,394.39556 233.93836,396.39777   C 240.68581,398.01956 245.71136,397.89943 252.67905,395.93726   C 261.08834,393.89501 271.63999,387.32776 275.12384,377.69712   C 281.65105,358.33574 277.54652,346.56274 278.1672,343.27911   C 278.3474,335.47049 285.39518,334.20909 285.17494,343.55942   z "
     style="fill:#002060;fill-rule:evenodd;fill-opacity:1;stroke:none;" />
  <path
     id="path73"
     d="  M 288.49861,342.97878   C 287.69773,353.87081 286.99695,364.8229 285.33512,375.63484   C 285.27505,375.63484 285.65547,381.08086 284.67439,387.56802   C 284.13379,394.11525 279.42859,401.54346 275.74453,403.58571   C 272.52097,406.18859 267.25515,407.04954 260.92816,410.15296   C 254.72131,413.15628 246.03171,422.32641 247.43326,438.06379   C 246.292,422.74687 252.45881,414.69798 257.20405,410.15296   C 262.18956,405.16746 267.53546,403.94611 273.14165,399.88162   C 280.40968,395.39667 284.75448,384.78495 285.27505,375.63484   C 286.01587,356.81406 283.67328,346.2624 283.81344,342.97878   C 283.83346,335.47049 288.51863,334.4894 288.49861,342.97878   z "
     style="fill:#002060;fill-rule:evenodd;fill-opacity:1;stroke:none;" />
  <path
     id="path75"
     d="  M 308.30048,347.62391   C 336.97214,363.92191 374.01305,366.96527 404.12631,350.90753   C 404.16635,351.06771 418.94267,342.65842 432.47762,328.48277   C 445.45195,313.42614 468.07693,302.77438 480.85104,304.89672   C 492.34373,305.53743 510.84416,312.82548 517.45146,336.9321   C 520.49482,348.46484 518.05212,365.0031 504.79749,376.65597   C 491.78311,388.30884 471.04021,393.59468 447.29398,393.55463   C 470.83998,393.59468 489.58068,388.14866 501.43377,378.61814   C 513.40699,369.12766 517.17115,356.55377 516.65058,346.58276   C 514.80854,327.04118 502.75523,311.86442 480.57073,309.42172   C 466.55525,308.46066 451.97916,315.108 440.16611,324.51839   C 428.63337,334.4894 416.82033,344.50046 404.12631,350.98762   C 378.37787,365.08319 353.87081,364.88297 337.49272,361.95974   C 320.75423,358.95642 310.78322,353.99094 306.13809,351.78851   C 295.64651,346.2624 291.08146,340.93652 291.52195,339.85533   C 292.04253,338.654 296.92792,341.57723 308.30048,347.62391   z "
     style="fill:#002060;fill-rule:evenodd;fill-opacity:1;stroke:none;" />
  <path
     id="path77"
     d="  M 482.69308,316.99008   C 496.0278,322.11574 504.357,337.6529 500.11231,351.06771   C 497.22913,364.6427 485.05568,374.53363 472.04131,376.4157   C 472.20149,376.53584 458.90681,380.17986 443.52982,376.17544   C 428.03271,372.13097 413.49666,361.59934 405.28759,358.11549   C 397.27875,354.43143 387.58804,347.704 369.60819,345.54161   C 351.54824,342.49825 325.27923,355.39249 305.89783,387.62809   C 325.55954,356.3135 345.94205,345.02103 362.28009,343.49935   C 378.69823,342.0978 390.71149,346.02214 407.32985,354.19116   C 417.7013,359.15664 427.43205,366.92522 438.00372,371.93075   C 448.77562,376.73606 461.10924,378.89845 472.00127,376.37566   C 495.90767,371.73053 501.75413,348.10444 497.42935,337.2925   C 492.78422,325.5195 484.05458,322.59627 481.05126,321.31485   C 473.20259,318.23145 468.63755,319.71308 467.79662,318.5518   C 466.71543,318.07127 471.88113,313.10579 482.69308,316.99008   z "
     style="fill:#002060;fill-rule:evenodd;fill-opacity:1;stroke:none;" />
  <path
     id="path79"
     d="  M 296.52748,357.35465   C 305.21707,375.53473 326.24029,382.22212 343.73962,381.22101   C 361.87965,380.50022 379.01858,374.49358 394.83605,366.725   C 394.91614,367.20553 411.13405,359.39691 429.27408,350.18674   C 438.5243,346.10223 449.17606,343.21904 458.50636,343.85975   C 467.9568,344.26019 474.96454,348.66506 478.3683,352.62944   C 481.8121,356.51373 484.89551,362.07987 484.93555,369.64823   C 485.05568,376.97632 481.41166,386.66703 471.12029,392.51348   C 461.7099,397.5991 443.16943,402.28427 432.2774,387.1876   C 418.14179,372.65155 446.17274,343.77966 467.5964,359.03651   C 458.02583,350.38696 444.69111,355.43253 437.40306,360.95863   C 429.1139,366.64491 425.91037,376.65597 429.51435,384.18428   C 432.75793,391.51238 438.84465,396.43782 445.13159,398.39998   C 451.53867,400.32211 457.58535,399.72144 463.07141,398.88051   C 474.00348,396.8783 483.21365,390.71149 487.85878,381.18097   C 492.46387,371.93075 492.62404,358.7562 483.41387,348.06439   C 471.04021,334.32923 450.17717,336.89206 435.96147,343.57944   C 420.86479,350.14669 408.81148,361.11881 394.796,366.64491   C 366.92522,379.17876 341.57723,380.74048 325.71972,374.89402   C 309.46176,369.04757 304.85668,358.3958 302.89451,354.39138   C 298.48965,344.34028 297.88898,337.37259 295.80668,337.01219   C 294.52527,336.41153 290.76111,343.25909 296.52748,357.35465   z "
     style="fill:#002060;fill-rule:evenodd;fill-opacity:1;stroke:none;" />
  <path
     id="path81"
     d="  M 291.8423,343.57944   C 293.36398,355.43253 296.24717,367.36571 301.85336,377.73716   C 301.93345,377.69712 303.01464,383.58362 306.89893,389.75043   C 310.54296,396.03737 318.03123,401.52343 322.59627,402.48449   C 326.96109,403.60573 333.1279,403.846 341.25688,400.60242   C 348.42479,397.27875 361.59934,390.6314 363.36129,373.21217   C 361.35908,390.47123 348.94537,394.39556 343.29913,396.39777   C 336.53166,398.03959 331.44604,397.91945 324.47835,395.95729   C 316.02902,393.91503 305.4173,387.34778 301.93345,377.69712   C 295.3662,358.35576 299.49075,346.58276 298.85004,343.29913   C 298.68987,335.49051 291.60204,334.20909 291.8423,343.57944   z "
     style="fill:#002060;fill-rule:evenodd;fill-opacity:1;stroke:none;" />
  <path
     id="path83"
     d="  M 288.59872,342.97878   C 289.43965,353.87081 290.1204,364.84292 291.76222,375.65486   C 291.8423,375.65486 291.48191,381.10088 292.44297,387.58804   C 293.00359,394.11525 297.68876,401.56348 301.37283,403.60573   C 304.61641,406.20861 309.8622,407.04954 316.18919,410.17299   C 322.39605,413.1763 331.08564,422.34643 329.6841,438.08381   C 330.80533,422.74687 324.63852,414.69798 319.9133,410.17299   C 314.90778,405.16746 309.5819,403.96613 303.9757,399.88162   C 296.68766,395.39667 292.36288,384.78495 291.8423,375.65486   C 291.08146,356.83408 293.44407,346.2624 293.2839,342.97878   C 293.2839,335.49051 288.59872,334.4894 288.59872,342.97878   z "
     style="fill:#002060;fill-rule:evenodd;fill-opacity:1;stroke:none;" />
  <path
     id="path85"
     d="  M 293.08367,411.89489   C 293.08367,411.89489 314.7476,405.64799 320.15357,421.34532   C 320.15357,421.34532 302.29385,428.99377 294.40513,416.01944   C 294.40513,416.01944 306.89893,423.86811 311.86442,418.30196   C 311.86442,418.30196 307.09915,420.38426 300.69208,415.17851   C 295.64651,411.13405 293.08367,411.89489 293.08367,411.89489   z "
     style="fill:#002060;fill-rule:evenodd;fill-opacity:1;stroke:none;" />
  <path
     id="path87"
     d="  M 291.96244,417.7013   C 291.96244,417.7013 312.22481,427.35196 303.75546,442.1483   C 303.75546,442.1483 285.07483,436.04155 289.63987,421.52552   C 289.63987,421.52552 293.12372,433.65892 300.27161,434.55992   C 300.27161,434.55992 295.24606,432.93813 294.76553,425.00937   C 294.38511,418.82254 291.96244,417.7013 291.96244,417.7013   z "
     style="fill:#002060;fill-rule:evenodd;fill-opacity:1;stroke:none;" />
  <path
     id="path89"
     d="  M 285.67549,418.34201   C 285.67549,418.34201 264.43203,426.35085 271.45979,441.94808   C 271.45979,441.94808 290.74109,437.36301 287.61764,422.36645   C 287.61764,422.36645 282.75227,436.6222 275.68446,434.59996   C 275.68446,434.59996 280.87019,433.37861 282.1516,425.46988   C 283.15271,419.26302 285.67549,418.34201 285.67549,418.34201   z "
     style="fill:#002060;fill-rule:evenodd;fill-opacity:1;stroke:none;" />
  <path
     id="path91"
     d="  M 284.75448,412.53559   C 284.75448,412.53559 263.81135,404.2064 256.8837,420.06391   C 256.8837,420.06391 273.88247,429.55439 283.0526,416.70019   C 283.0526,416.70019 269.37749,423.14731 265.43314,417.58117   C 265.43314,417.58117 269.99818,420.16402 276.88579,415.31867   C 282.29176,411.51447 284.75448,412.53559 284.75448,412.53559   z "
     style="fill:#002060;fill-rule:evenodd;fill-opacity:1;stroke:none;" />
  <path
     id="path93"
     d="  M 282.85238,413.1763   C 282.61211,410.21303 285.79563,411.51447 289.03921,411.31425   C 292.28279,411.094 294.40513,409.45219 294.62538,412.41546   C 294.86564,415.37873 292.40292,417.96159 289.15934,418.16181   C 285.89574,418.38205 283.07262,416.13958 282.85238,413.1763   z "
     style="fill:#002060;fill-rule:evenodd;fill-opacity:1;stroke:none;" />
  <path
     id="path95"
     d="  M 288.49861,340.49604   C 288.49861,340.49604 286.99695,411.2742 286.99695,411.995   C 286.99695,412.69577 287.6777,413.27641 288.49861,413.27641   C 289.33954,413.27641 290.02029,412.69577 290.02029,411.995   C 290.02029,411.2742 288.49861,340.49604 288.49861,340.49604   z "
     style="fill:#002060;fill-rule:evenodd;fill-opacity:1;stroke:none;" />
</svg>
